<?xml version="1.0" encoding="utf-8"?>
<!-- Generator: Adobe Illustrator 16.0.0, SVG Export Plug-In . SVG Version: 6.00 Build 0)  -->
<!DOCTYPE svg PUBLIC "-//W3C//DTD SVG 1.1//EN" "http://www.w3.org/Graphics/SVG/1.1/DTD/svg11.dtd">
<svg version="1.1" id="Layer_1" xmlns="http://www.w3.org/2000/svg" xmlns:xlink="http://www.w3.org/1999/xlink" x="0px" y="0px"
	 width="110px" height="100px" viewBox="0 0 110 100" enable-background="new 0 0 110 100" xml:space="preserve">
<path fill-rule="evenodd" clip-rule="evenodd" fill="#FFCA05" d="M15.651,0.984h78.696l0,0c8.057,0,14.652,6.594,14.652,14.652l0,0
	v68.726l0,0c0,8.057-6.596,14.654-14.652,14.654l0,0H15.651l0,0C7.594,99.017,1,92.419,1,84.362l0,0V15.636l0,0
	C1,7.578,7.594,0.984,15.651,0.984L15.651,0.984L15.651,0.984L15.651,0.984L15.651,0.984z"/>
<path fill-rule="evenodd" clip-rule="evenodd" fill="#EC1C24" d="M14.922,6.1h80.154l0,0c4.896,0,8.9,4.004,8.9,8.9l0,0v69.999l0,0
	c0,4.896-4.005,8.9-8.9,8.9l0,0H14.922l0,0c-4.895,0-8.9-4.004-8.9-8.9l0,0V15l0,0C6.022,10.104,10.027,6.1,14.922,6.1L14.922,6.1
	L14.922,6.1L14.922,6.1L14.922,6.1z"/>
<path fill-rule="evenodd" clip-rule="evenodd" fill="#FFFFFF" d="M57.106,17.564v64.871h15.476v-7.541H67.82V58.629l0,0
	c1.49-2.336,9.818-6.342,9.818,1.191l0,0v22.318h15.773v-7.244h-5.356V55.057l0,0c0-10.61-15.516-10.259-20.235-5.355l0,0V24.805
	h5.653v-7.241H57.106L57.106,17.564L57.106,17.564L57.106,17.564z M52.891,17.564v64.871H37.417v-7.541h4.762V58.629l0,0
	c-1.491-2.336-9.82-6.342-9.82,1.191l0,0v22.318H16.587v-7.244h5.356V55.057l0,0c0-10.61,15.516-10.259,20.235-5.355l0,0V24.805
	h-5.655v-7.241H52.891L52.891,17.564L52.891,17.564L52.891,17.564z M72.285,29.169v13.986h26.483V40.18L72.285,29.169L72.285,29.169
	L72.285,29.169L72.285,29.169z M37.715,29.169v13.986H11.231V40.18L37.715,29.169L37.715,29.169L37.715,29.169L37.715,29.169z"/>
</svg>
